<svg id="Layer_1" data-name="Layer 1" xmlns="http://www.w3.org/2000/svg" xmlns:xlink="http://www.w3.org/1999/xlink" viewBox="0 0 1374.71 173.27"><defs><style>.cls-1,.cls-3,.cls-5,.cls-6,.cls-8{font-size:146px;font-weight:700;}.cls-1,.cls-3{stroke:#169ccc;font-family:SFSlapstickComicSC-Bold, SF Slapstick Comic SC;}.cls-1{stroke-width:8px;}.cls-2{letter-spacing:-0.03em;}.cls-3,.cls-6,.cls-8{fill:none;}.cls-4{fill:url(#linear-gradient);}.cls-5,.cls-6,.cls-8{font-family:SFSlapstickComic-Bold, SF Slapstick Comic;}.cls-6{stroke:#fff;stroke-width:9px;}.cls-6,.cls-8{stroke-linejoin:round;}.cls-7{fill:url(#linear-gradient-12);}.cls-8{stroke:#000;stroke-width:3px;}</style><linearGradient id="linear-gradient" x1="345.82" y1="41.56" x2="345.82" y2="144.2" gradientUnits="userSpaceOnUse"><stop offset="0" stop-color="#29b6ff"/><stop offset="0.28" stop-color="#2bbffb"/><stop offset="0.75" stop-color="#32d9ef"/><stop offset="1" stop-color="#36e9e7"/></linearGradient><linearGradient id="linear-gradient-12" x1="1018.73" y1="44.88" x2="1018.73" y2="177.45" gradientUnits="userSpaceOnUse"><stop offset="0" stop-color="#f23333"/><stop offset="0.41" stop-color="#f23333"/><stop offset="0.43" stop-color="#f00c0c"/><stop offset="0.99" stop-color="#f00c0c"/></linearGradient></defs><text class="cls-1" transform="translate(7.71 127.52)">TwitchPl<tspan class="cls-2" x="478.73" y="0">a</tspan><tspan x="532.02" y="0">ys</tspan></text><text class="cls-3" transform="translate(7.71 127.52)">TwitchPl<tspan class="cls-2" x="478.73" y="0">a</tspan><tspan x="532.02" y="0">ys</tspan></text><path class="cls-4" d="M41.92,66.38q-5.25-.59-11.46-1.32T19.29,63.9V41.56l71.25,5-1.31,21H60.46v73.14H41.92Z" transform="translate(-11.29 -13.18)"/><path class="cls-4" d="M89.66,62.87h21.9l3.22,33.29c.38-3,.73-5.76,1-8.25s.58-4.91.87-7.3.61-4.76,1-7.15.66-5,.95-8H135.8l4.82,40.74,8-41.47,21.17,2.78-15,76.06h-26l-2.19-24.23L123,142.15H98.86Z" transform="translate(-11.29 -13.18)"/><path class="cls-4" d="M171.42,61.71l20.3,1.89v79l-20.3-2Z" transform="translate(-11.29 -13.18)"/><path class="cls-4" d="M213.47,83q-4.23-.43-9.2-1t-8.76-.88V61l58.84,3.94-1,19.12H230.55v57.82H213.47Z" transform="translate(-11.29 -13.18)"/><path class="cls-4" d="M256.68,108.28A25,25,0,0,1,260,96.6,61.08,61.08,0,0,1,269.24,84a106.86,106.86,0,0,1,13.87-12.33,134.93,134.93,0,0,1,17.23-11l4.82,22.2a89.18,89.18,0,0,0-10.44,5.33,52.64,52.64,0,0,0-8.18,5.91,29.25,29.25,0,0,0-5.4,6.2,11.3,11.3,0,0,0-2,5.92,8.5,8.5,0,0,0,2,5.54A16.29,16.29,0,0,0,287,116a36.08,36.08,0,0,0,8.91,2.7,64.88,64.88,0,0,0,11.6,1c.59,0,1.27,0,2.05-.08s2.28-.16,4.52-.36l4.24,17.67-2.19,2.33a130.54,130.54,0,0,1-23.36-2,73.65,73.65,0,0,1-18.84-5.84,35.63,35.63,0,0,1-12.63-9.63A21.08,21.08,0,0,1,256.68,108.28Z" transform="translate(-11.29 -13.18)"/><path class="cls-4" d="M314.5,63.75H336l2.19,27.45,10.51-.59-2.77-28.17,20.73-2.92,6,78.84L351,141.28l-3.21-32.12-5.4.58c-1.17.2-2.07.34-2.71.44s-1.63.19-3,.29l2.19,30.95-18.39,2.78Z" transform="translate(-11.29 -13.18)"/><path class="cls-4" d="M374.8,44.92c2.14-.2,4.57-.34,7.3-.44s5.2-.15,7.44-.15a147.07,147.07,0,0,1,25.33,2A72.19,72.19,0,0,1,433.71,52a32.11,32.11,0,0,1,11.75,9,19.47,19.47,0,0,1,4.09,12.19q0,11.39-12.78,20.66t-36.71,15.69l2.19,31.1H380.2Zm20.58,42.19q29.79-2.62,29.79-13.58T402.25,62.44a77.46,77.46,0,0,0-8.47.43Z" transform="translate(-11.29 -13.18)"/><path class="cls-4" d="M449.4,61.85h19.42l5,58.84,27.3-3.36,1.31,19.42-45.26,5.55Z" transform="translate(-11.29 -13.18)"/><path class="cls-4" d="M510.28,62.44h18.84l31,75.62-21.9,2.78-5-14.46-13.44,3.07q-.28,2.93-.8,6.42t-.8,6h-22Zm11.54,48.18a15.86,15.86,0,0,1,3.36-.59,12.25,12.25,0,0,0,3.06-.58L523.57,97l-.44,3.36c-.29,2-.53,3.72-.73,5S522,108.48,521.82,110.62Z" transform="translate(-11.29 -13.18)"/><path class="cls-4" d="M570.88,109.3q-6-9.78-12.41-20.58T546.06,68.28l19.85-5.7,12,24.68q2.49-5.12,5.37-12.27t5.51-13.43l20.89-1.75L590,105.65V141l-19.12,2.34Z" transform="translate(-11.29 -13.18)"/><path class="cls-4" d="M612.34,123.61c.39,0,.95,0,1.68.07l2.19.15,2,.14c.63.06,1.1.08,1.39.08q16.5,0,23.94-2.34t7.45-6.13a3.51,3.51,0,0,0-.44-1.68,4,4,0,0,0-1.75-1.46,14.16,14.16,0,0,0-3.58-1.09,31.52,31.52,0,0,0-5.91-.44h-1.61c-3.6-.2-6.57-.39-8.9-.59a26.78,26.78,0,0,1-5.41-.87l.15.14q-8.18-2-12.26-7.44a21.35,21.35,0,0,1-4.09-13.29q0-11.53,14.82-18.9t41.68-9.42l-.58,22.34q-8,0-14.6.51A107.9,107.9,0,0,0,637.3,84.8a29.16,29.16,0,0,0-7.22,2.14c-1.71.84-2.56,1.75-2.56,2.73a4.62,4.62,0,0,0,2.19,3.7q2.19,1.62,8.76,2.06,7.59.43,12,.8a39,39,0,0,1,5.41.66q8,1.89,12.26,7a18.91,18.91,0,0,1,4.23,12.51,15.81,15.81,0,0,1-4.3,10.7,35.79,35.79,0,0,1-12,8.44,83.24,83.24,0,0,1-18.4,5.76,143.44,143.44,0,0,1-23.58,2.61Z" transform="translate(-11.29 -13.18)"/><text class="cls-5" transform="translate(678.07 134.78)">PaperMario</text><text class="cls-6" transform="translate(678.07 134.78)">PaperMario</text><path class="cls-7" d="M689.36,52.18c2.14-.2,4.58-.34,7.3-.44s5.21-.15,7.45-.15a147.16,147.16,0,0,1,25.33,2,72.23,72.23,0,0,1,18.83,5.7A32.23,32.23,0,0,1,760,68.31a19.54,19.54,0,0,1,4.08,12.19q0,11.39-12.77,20.66t-36.72,15.7L716.81,148h-22ZM710,94.37q29.77-2.62,29.78-13.58T716.81,69.7a75,75,0,0,0-8.47.44Z" transform="translate(-11.29 -13.18)"/><path class="cls-7" d="M767.33,123.28a16.41,16.41,0,0,1,3.13-9.49,32.25,32.25,0,0,1,8.69-8.25,57.88,57.88,0,0,1,13.36-6.42,91.55,91.55,0,0,1,17.3-4,15.73,15.73,0,0,0-2.63-4.74q-1.45-1.68-4.67-1.68a11.61,11.61,0,0,0-6.06,1.82q-3,1.83-6.49,7.23L776.23,87.66q5.7-8.91,12.27-12.41t15.91-3.51q7.59,0,12.56,2.7a21.31,21.31,0,0,1,7.88,7.3,30.49,30.49,0,0,1,4.09,10.73,68.54,68.54,0,0,1,1.17,12.85,107.09,107.09,0,0,1-.59,11q-.59,5.7-1.53,11.17c-.63,3.65-1.32,7.16-2,10.51s-1.39,6.35-2,9l-.87,4.67A200.18,200.18,0,0,1,798,146.93a82.56,82.56,0,0,1-17.3-6.35q-6.8-3.57-10.08-7.88A15.19,15.19,0,0,1,767.33,123.28Zm19.12-2.77q0,2.63,4.92,4.67t16.23,3.36a53.17,53.17,0,0,0,2-8.91c.54-3.6.9-7.15,1.1-10.66a64.83,64.83,0,0,0-9.62,1.24,34.75,34.75,0,0,0-7.71,2.49,16.26,16.26,0,0,0-5.07,3.5A6.18,6.18,0,0,0,786.45,120.51Z" transform="translate(-11.29 -13.18)"/><path class="cls-7" d="M858.58,148.1q.72,7,1.67,14.89t1.54,14.46H843.54L832.73,73.06c1.66-.1,3.65-.17,6-.22s4.23-.08,5.69-.08q29.94,0,45.26,7.89T905,104.15a25.78,25.78,0,0,1-3.28,12.27,45.74,45.74,0,0,1-9.42,11.82,87.7,87.7,0,0,1-14.67,10.81A117.58,117.58,0,0,1,858.58,148.1Zm-2.92-19.27c2.53-.88,5.35-2,8.46-3.29a47.08,47.08,0,0,0,8.76-4.82,29.26,29.26,0,0,0,6.87-6.56,13.77,13.77,0,0,0,2.77-8.4q-.74-6.57-7.37-9.78t-21.39-3.21h-1.32q.73,9.2,1.61,17.88T855.66,128.83Z" transform="translate(-11.29 -13.18)"/><path class="cls-7" d="M939,128.83q5.12,3.94,9.93,3.94a18.22,18.22,0,0,0,3.94-.58,26.5,26.5,0,0,0,5.48-2.05,38.82,38.82,0,0,0,6.35-4,41.06,41.06,0,0,0,6.71-6.65l10.37,12a53.61,53.61,0,0,1-14.6,12.62q-8.33,4.9-19.86,4.9a34.13,34.13,0,0,1-13.94-3,38.85,38.85,0,0,1-12.12-8.39,40.85,40.85,0,0,1-8.54-13.07,44,44,0,0,1-3.21-17.15A41.54,41.54,0,0,1,911.43,95a29.88,29.88,0,0,1,5.91-10.81,30.58,30.58,0,0,1,10.07-7.59,32.8,32.8,0,0,1,14.38-2.92A26.66,26.66,0,0,1,953,76.05a34.41,34.41,0,0,1,9.56,6.57,44.05,44.05,0,0,1,7.52,9.71,61.6,61.6,0,0,1,5.25,11.82Zm-8-12.41q6.57-4.1,12.48-7.74t12.78-7.74a17.66,17.66,0,0,0-5.62-5.25,14.12,14.12,0,0,0-7.38-2A12.28,12.28,0,0,0,937.41,95a12.58,12.58,0,0,0-4.16,3.5,15.75,15.75,0,0,0-2.55,5,19.76,19.76,0,0,0-.88,5.91,20.44,20.44,0,0,0,.29,3.43A30.45,30.45,0,0,0,931,116.42Z" transform="translate(-11.29 -13.18)"/><path class="cls-7" d="M980.92,74.81l19.71-4.09.29,10.8a62.05,62.05,0,0,1,13.73-7.88,87.7,87.7,0,0,1,17.66-5.26l1.75,22.05a85.59,85.59,0,0,0-11.6,1.39,53.57,53.57,0,0,0-10.37,3,28.5,28.5,0,0,0-7.52,4.38,7.79,7.79,0,0,0-3.06,5.69l1.31,44.1h-18Z" transform="translate(-11.29 -13.18)"/><path class="cls-7" d="M1045.89,44.88l24.38,2.92,9.2,52.27q2.19-12.85,4.6-26.07t4.45-25.62l36.21,2.48V148h-28.91V90.58l-9.49,52.7h-15.91L1064,91.74q-1.76,12.42-3.79,26.14t-3.8,25.69L1033,140.22Z" transform="translate(-11.29 -13.18)"/><path class="cls-7" d="M1131.3,123.28a16.35,16.35,0,0,1,3.14-9.49,32.06,32.06,0,0,1,8.68-8.25,57.88,57.88,0,0,1,13.36-6.42,91.74,91.74,0,0,1,17.3-4,16,16,0,0,0-2.62-4.74q-1.47-1.68-4.68-1.68a11.61,11.61,0,0,0-6.06,1.82q-3,1.83-6.49,7.23L1140.2,87.66q5.7-8.91,12.27-12.41t15.91-3.51q7.59,0,12.56,2.7a21.23,21.23,0,0,1,7.88,7.3,30.49,30.49,0,0,1,4.09,10.73,68.54,68.54,0,0,1,1.17,12.85,107.09,107.09,0,0,1-.59,11q-.59,5.7-1.53,11.17t-2,10.51q-1.1,5-2,9l-.88,4.67a200.18,200.18,0,0,1-25.11-4.67,82.56,82.56,0,0,1-17.3-6.35q-6.79-3.57-10.08-7.88A15.19,15.19,0,0,1,1131.3,123.28Zm19.12-2.77q0,2.63,4.92,4.67t16.23,3.36a53.17,53.17,0,0,0,2-8.91c.54-3.6.9-7.15,1.1-10.66a64.83,64.83,0,0,0-9.62,1.24,34.75,34.75,0,0,0-7.71,2.49,16.26,16.26,0,0,0-5.07,3.5A6.18,6.18,0,0,0,1150.42,120.51Z" transform="translate(-11.29 -13.18)"/><path class="cls-7" d="M1198.75,74.81l19.71-4.09.29,10.8a62.2,62.2,0,0,1,13.72-7.88,88,88,0,0,1,17.67-5.26l1.75,22.05a85.59,85.59,0,0,0-11.6,1.39,53.57,53.57,0,0,0-10.37,3,28.34,28.34,0,0,0-7.52,4.38,7.84,7.84,0,0,0-3.07,5.69l1.32,44.1h-18Z" transform="translate(-11.29 -13.18)"/><path class="cls-7" d="M1255.1,74.81l18.54-1.46-1.89,73.14-16.65,2.92Zm2.19-29.35,18.25,1.61.73,19.12-19,1.61Z" transform="translate(-11.29 -13.18)"/><path class="cls-7" d="M1315,149.85a30.13,30.13,0,0,1-13.4-3.14,38.18,38.18,0,0,1-11.44-8.61,41.81,41.81,0,0,1-8-13,44.17,44.17,0,0,1-3-16.43,39.15,39.15,0,0,1,2.33-13.43,37.14,37.14,0,0,1,6.63-11.46,31.37,31.37,0,0,1,24.4-11,29.94,29.94,0,0,1,14.5,3.51,35.7,35.7,0,0,1,11.07,9.27,44.13,44.13,0,0,1,7.14,13.14,51.48,51.48,0,0,1,2.84,15,42.9,42.9,0,0,1-2.18,13.58,35.9,35.9,0,0,1-6.34,11.61,30.21,30.21,0,0,1-10.35,8A32.29,32.29,0,0,1,1315,149.85Zm.51-19.12a11.84,11.84,0,0,0,5.77-1.39,12.55,12.55,0,0,0,4.24-3.72,17.44,17.44,0,0,0,2.55-5.41,23.37,23.37,0,0,0,.88-6.42,27.05,27.05,0,0,0-1.1-7.37,26.65,26.65,0,0,0-3.14-7.08,17.67,17.67,0,0,0-5.25-5.33,13,13,0,0,0-7.3-2.12,12.18,12.18,0,0,0-5.92,1.39,13.42,13.42,0,0,0-4.3,3.65,16.52,16.52,0,0,0-2.7,5.33,21.32,21.32,0,0,0-1,6.42,26.56,26.56,0,0,0,1.38,8.69,22.14,22.14,0,0,0,3.8,6.93,19.23,19.23,0,0,0,5.55,4.67A13.11,13.11,0,0,0,1315.54,130.73Z" transform="translate(-11.29 -13.18)"/><text class="cls-8" transform="translate(678.07 134.78)">PaperMario</text></svg>